<svg xmlns="http://www.w3.org/2000/svg" viewBox="0 0 48 48" role="img" aria-label="Messenger">
  <defs>
    <linearGradient id="ms" x1="0" y1="0" x2="0" y2="1">
      <stop offset="0" stop-color="#00B2FF"/>
      <stop offset="1" stop-color="#006AFF"/>
    </linearGradient>
  </defs>
  <rect width="48" height="48" rx="11" fill="url(#ms)"/>
  <path fill="#fff" d="M24 11c-7.3 0-13 5.4-13 12.6 0 3.8 1.6 7.1 4.1 9.3.2.2.3.4.4.7l.1 2.3c0 .7.8 1.2 1.4.9l2.6-1.1c.2-.1.5-.1.7-.1 1.2.3 2.4.5 3.7.5 7.3 0 13-5.4 13-12.6S31.3 11 24 11z"/>
  <path fill="#006AFF" d="m16.2 27.3 3.8-6.1c.6-1 1.9-1.2 2.8-.5l3.1 2.3c.3.2.7.2 1 0l4.1-3.1c.5-.4 1.2.2.9.8l-3.8 6.1c-.6 1-1.9 1.2-2.8.5l-3.1-2.3c-.3-.2-.7-.2-1 0l-4.1 3.1c-.5.4-1.2-.2-.9-.8z"/>
</svg>
