<svg xmlns="http://www.w3.org/2000/svg" viewBox="0 0 48 48" role="img" aria-label="Outlook">
  <rect width="48" height="48" rx="11" fill="#fff"/>
  <path fill="#0A2767" d="M39 24.4c0-.3-.2-.6-.4-.7l-.1-.1-9.6-5.7a1.2 1.2 0 0 0-1.3 0L18 23.6l-.1.1a.9.9 0 0 0 .1 1.5l9.6 5.7a1.2 1.2 0 0 0 1.3 0l9.6-5.7c.3-.2.5-.4.5-.8z"/>
  <path fill="#0364B8" d="M20.6 18.6h6.7v6.2h-6.7zM12 14.3h11v11H12z"/>
  <path fill="#28A8EA" d="M27.3 14.3H38a1 1 0 0 1 1 1v9.1l-11.7 6.9V14.3z"/>
  <path fill="#0078D4" d="M27.3 24.8H39v8.9a1 1 0 0 1-1 1H28.3a1 1 0 0 1-1-1v-8.9z"/>
  <path fill="#0A2767" opacity=".5" d="M27.3 24.8H39v.4l-11.7 6.9z"/>
  <rect width="16" height="16" x="6" y="16" rx="2" fill="#0078D4"/>
  <path fill="#fff" d="M14 19.4c-2.3 0-3.8 1.7-3.8 4.3 0 2.5 1.5 4.3 3.7 4.3s3.7-1.8 3.7-4.4c0-2.7-1.4-4.2-3.6-4.2zm-.1 7c-1.2 0-2-1-2-2.8 0-1.7.8-2.8 2-2.8s1.9 1.1 1.9 2.7c0 1.9-.7 2.9-1.9 2.9z"/>
</svg>
