<svg xmlns="http://www.w3.org/2000/svg" viewBox="0 0 48 48" role="img" aria-label="TikTok">
  <rect width="48" height="48" rx="11" fill="#000"/>
  <path fill="#25F4EE" d="M30.6 19.7a10 10 0 0 0 3.4 1.6v-3.4a6.6 6.6 0 0 1-1.4-.2v5.3a8.4 8.4 0 0 1-13.1 6.9 8.4 8.4 0 0 0 14.5-5.8v-5.3a10 10 0 0 1-3.4-1.6z"/>
  <path fill="#FE2C55" d="M22.8 16.5a8.4 8.4 0 0 0-4.6 15.4 8.4 8.4 0 0 1 5.5-14.5c.4 0 .8 0 1.2.1v-3.5a10 10 0 0 0-1.4-.1h-.2v3.4c-.2 0-.4-.1-.5-.1z"/>
  <path fill="#fff" d="M32.6 14.7a6.6 6.6 0 0 1-3.2-3.7h-3.3v14.4a3 3 0 0 1-5.4 1.8 3 3 0 0 1 3.9-4.4v-3.4a6.4 6.4 0 0 0-.9-.1 6.4 6.4 0 0 0-5 10.4 6.4 6.4 0 0 0 10.9-4.5v-7.3a10 10 0 0 0 5.8 1.9v-3.4a6.6 6.6 0 0 1-2.8-.7z"/>
</svg>
