<svg xmlns="http://www.w3.org/2000/svg" viewBox="0 0 48 48" role="img" aria-label="WhatsApp">
  <rect width="48" height="48" rx="11" fill="#25D366"/>
  <path fill="#fff" d="M24 11.5c-6.9 0-12.5 5.6-12.5 12.5 0 2.2.6 4.3 1.6 6.2L11.3 37l7-1.8c1.8 1 3.7 1.5 5.7 1.5 6.9 0 12.5-5.6 12.5-12.5S30.9 11.5 24 11.5z"/>
  <path fill="#25D366" d="M19.7 17.6c-.3-.7-.6-.7-.9-.7h-.8c-.3 0-.7.1-1 .5-.4.4-1.4 1.3-1.4 3.3s1.4 3.9 1.6 4.1c.2.3 2.8 4.5 7 6.2 3.5 1.4 4.2 1.1 4.9 1 .8-.1 2.4-1 2.7-1.9.3-1 .3-1.8.2-1.9-.1-.2-.4-.3-.8-.5s-2.4-1.2-2.8-1.3c-.4-.1-.6-.2-.9.2-.3.4-1 1.3-1.2 1.5-.2.3-.4.3-.8.1-.4-.2-1.7-.7-3.3-2-1.2-1.1-2-2.4-2.3-2.8-.2-.4 0-.6.2-.8.2-.2.4-.4.5-.6.2-.2.2-.4.4-.6.1-.3 0-.5 0-.6-.1-.3-.9-2.3-1.2-3z"/>
</svg>
